<?xml version="1.0" encoding="utf-8"?>
<!-- Generator: Adobe Illustrator 24.2.3, SVG Export Plug-In . SVG Version: 6.00 Build 0)  -->
<svg version="1.1" id="Layer_1" xmlns="http://www.w3.org/2000/svg" xmlns:xlink="http://www.w3.org/1999/xlink" x="0px" y="0px"
	 viewBox="0 0 512 408" style="enable-background:new 0 0 512 408;" xml:space="preserve">
<style type="text/css">
	.st0{fill:url(#SVGID_1_);stroke:#FFFFFF;stroke-width:8;stroke-miterlimit:10;}
	.st1{fill:url(#SVGID_2_);stroke:#FFFFFF;}
</style>
<linearGradient id="SVGID_1_" gradientUnits="userSpaceOnUse" x1="77.1087" y1="348.0168" x2="468.5846" y2="37.2631" gradientTransform="matrix(1 0 0 -1 0 410)">
	<stop  offset="0" style="stop-color:#9013FE"/>
	<stop  offset="1" style="stop-color:#6610F2"/>
</linearGradient>
<path class="st0" d="M81.4,72.2C80.6,47.9,99.5,25.5,125,25.5H387c25.6,0,44.5,22.4,43.6,46.7c-0.8,23.3,0.2,53.5,7.8,78.1
	c7.6,24.7,20.5,40.3,41.5,42.3v22.8c-21.1,2-33.9,17.6-41.5,42.3c-7.6,24.6-8.7,54.8-7.8,78.1c0.8,24.3-18.1,46.7-43.6,46.7H125
	c-25.6,0-44.5-22.4-43.6-46.7c0.8-23.3-0.2-53.5-7.8-78.1C66,233,53.1,217.4,32,215.4v-22.8c21.1-2,34-17.6,41.6-42.3
	C81.2,125.7,82.2,95.5,81.4,72.2z"/>
<linearGradient id="SVGID_2_" gradientUnits="userSpaceOnUse" x1="197.5037" y1="286.2213" x2="285.0089" y2="138.2307" gradientTransform="matrix(1 0 0 -1 0 410)">
	<stop  offset="0" style="stop-color:#FFFFFF"/>
	<stop  offset="1" style="stop-color:#F1E5FC"/>
</linearGradient>
<path class="st1" d="M265.7,298.9c41.4,0,66.3-20.3,66.3-53.7c0-25.3-17.8-43.6-44.2-46.4v-1.1c19.4-3.2,34.6-21.2,34.6-41.3
	c0-28.7-22.6-47.4-57.2-47.4h-77.6v189.9H265.7z M217.9,133.1H258c21.8,0,34.2,9.7,34.2,27.4c0,18.8-14.4,29.3-40.6,29.3h-33.8
	C217.9,189.8,217.9,133.1,217.9,133.1z M217.9,274.8v-62.5h39.9c28.6,0,43.4,10.5,43.4,31.1c0,20.5-14.4,31.4-41.7,31.4H217.9z"/>
</svg>
