<?xml version="1.0" encoding="utf-8"?>
<!-- Generator: Adobe Illustrator 24.2.3, SVG Export Plug-In . SVG Version: 6.00 Build 0)  -->
<svg version="1.1" id="Layer_1" xmlns="http://www.w3.org/2000/svg" xmlns:xlink="http://www.w3.org/1999/xlink" x="0px" y="0px"
	 viewBox="0 0 800 800" style="enable-background:new 0 0 800 800;" xml:space="preserve">
<style type="text/css">
	.st0{fill:#E76F00;}
	.st1{fill:#FFFFFF;}
</style>
<path class="st0" d="M401.1,228.7c149.2-115.8,72.7-191.2,72.7-191.2c11.4,119.8-123.3,148.1-159.4,230.3
	c-24.6,56.2,16.9,105.4,86.7,167.4c-6.2-13.8-15.7-27.1-25.4-40.6C342.8,348.6,308.6,300.6,401.1,228.7z"/>
<path class="st0" d="M424.9,460.6c0,0,44.9-36.2,9.3-76.5C313.7,247.6,566.1,185.6,566.1,185.6c-154,74.2-131.1,118.2-92.3,171.8
	C515.3,414.8,424.9,460.6,424.9,460.6z"/>
<path class="st1" d="M557.1,568.6c138.3-70.7,74.4-138.5,29.7-129.4c-11,2.3-15.9,4.2-15.9,4.2s4.1-6.3,11.8-9
	c88.3-30.5,156.2,90.1-28.5,137.8C554.4,572.2,556.5,570.3,557.1,568.6z"/>
<path class="st1" d="M269.3,479.2c-86.5-11.3,47.5-42.7,47.5-42.7s-52-3.4-116,27c-75.7,36,187.2,52.4,323.2,17.2
	c14.1-9.5,33.7-17.8,33.7-17.8s-55.6,9.8-111.1,14.4C378.7,482.9,305.9,484,269.3,479.2z"/>
<path class="st1" d="M302.3,546.7c-48.3-4.9-16.7-27.9-16.7-27.9c-124.9,40.8,69.5,87,243.9,36.8c-18.6-6.4-30.4-18.2-30.4-18.2
	C414,553.6,364.7,553,302.3,546.7z"/>
<path class="st1" d="M323.3,619.7c-48.2-5.4-20-21.6-20-21.6c-113.4,31.2,69,95.5,213.2,34.7c-23.6-9.1-40.6-19.5-40.6-19.5
	C411.6,625.3,381.7,626.3,323.3,619.7z"/>
<path class="st1" d="M625.2,656.9c0,0,20.8,16.9-22.9,30c-83.3,24.8-346.7,32.3-419.9,1c-26.3-11.2,23-26.9,38.5-30.2
	c16.2-3.4,25.5-2.8,25.5-2.8c-29.3-20.3-189.1,39.8-81.2,57C459.3,758.7,701.5,690.7,625.2,656.9z"/>
<path class="st1" d="M671.8,693.8c-4.8,61.8-208.7,74.8-341.4,66.4c-86.6-5.4-103.9-19.1-104.2-19.3c82.9,13.4,222.6,15.9,335.9-5.1
	C662.6,717.1,671.8,693.8,671.8,693.8z"/>
</svg>
