<?xml version="1.0" encoding="utf-8"?>
<!-- Generator: Adobe Illustrator 24.2.3, SVG Export Plug-In . SVG Version: 6.00 Build 0)  -->
<svg version="1.1" id="Layer_1" xmlns="http://www.w3.org/2000/svg" xmlns:xlink="http://www.w3.org/1999/xlink" x="0px" y="0px"
	 viewBox="0 0 192.8 192.8" style="enable-background:new 0 0 192.8 192.8;" xml:space="preserve">
<style type="text/css">
	.st0{fill:#ED225D;}
	.st1{fill:#FFFFFF;}
</style>
<g>
	<rect class="st0" width="192.8" height="192.8"/>
	<path class="st1" d="M31.8,88v8h0.4c0.7-1.1,1.7-2.2,2.8-3.4c1.2-1.2,2.6-2.2,4.2-3.1c1.7-0.9,3.6-1.7,5.7-2.3
		c2.1-0.6,4.5-0.9,7.1-0.9c4.1,0,7.8,0.8,11.2,2.3c3.4,1.6,6.4,3.7,8.8,6.4c2.5,2.7,4.4,5.9,5.7,9.6c1.4,3.7,2,7.6,2,11.8
		c0,4.2-0.7,8.2-2,11.9c-1.3,3.7-3.2,6.9-5.6,9.7c-2.4,2.7-5.4,4.9-8.8,6.6c-3.5,1.6-7.4,2.4-11.8,2.4c-4.1,0-7.8-0.8-11.2-2.5
		c-3.4-1.7-6-3.9-7.8-6.8h-0.2v36.3H18.1V88H31.8z M65.2,116.4c0-2.2-0.3-4.4-1-6.6c-0.7-2.2-1.7-4.2-3-5.9
		c-1.4-1.7-3.1-3.2-5.1-4.2C54,98.5,51.5,98,48.7,98c-2.6,0-5,0.6-7,1.7c-2.1,1.1-3.8,2.5-5.3,4.3c-1.5,1.8-2.6,3.7-3.3,6
		c-0.8,2.2-1.1,4.5-1.1,6.7c0,2.2,0.4,4.4,1.1,6.6c0.8,2.2,1.9,4.2,3.3,5.9c1.5,1.8,3.2,3.2,5.3,4.2c2.1,1.1,4.4,1.6,7,1.6
		c2.8,0,5.2-0.6,7.3-1.7c2.1-1.1,3.8-2.5,5.1-4.3c1.4-1.8,2.4-3.7,3-6C64.9,120.8,65.2,118.6,65.2,116.4z"/>
	<g>
		<path class="st1" d="M169.1,68.3l8.5-2.6l1.7,5.2l-8.5,2.9l5.3,7.5l-4.4,3.2l-5.6-7.3l-5.4,7.2l-4.3-3.3l5.3-7.2l-8.6-3.1l1.7-5.2
			l8.6,2.8v-8.9h5.8L169.1,68.3L169.1,68.3z"/>
	</g>
	<g>
		<path class="st1" d="M139.6,106.2c-1.5-3.3-3.5-6.1-6.1-8.4c-2.6-2.3-5.7-4-9.3-5.2c-3.5-1.2-7.4-1.8-11.5-1.8
			c-1.5,0-3.2,0.1-5.1,0.2c-1.9,0.2-3.5,0.4-4.8,0.8l0.8-18.3h34.5V60.8H90L88.6,107c1.3-0.6,2.7-1.2,4.4-1.8c1.6-0.6,3.3-1.1,5-1.5
			c1.7-0.4,3.5-0.8,5.3-1c1.8-0.2,3.5-0.4,5.1-0.4c2.3,0,4.6,0.3,6.8,0.8c2.2,0.5,4.2,1.4,6,2.7c1.8,1.3,3.2,3,4.4,5.2
			c1.1,2.1,1.7,4.9,1.7,8.1c0,2.5-0.4,4.8-1.3,6.9c-0.8,2-2,3.7-3.4,5.1c-1.4,1.4-3.1,2.4-5,3.1c-1.9,0.7-3.9,1.1-6.1,1.1
			c-3.8,0-7.1-1-9.9-3c-2.8-2-4.8-4.7-6-8.1l-0.2,0.1L85,133.9c2.1,3.4,4.8,6.3,8.1,8.6c4.9,3.3,10.8,5,17.9,5c4.2,0,8.2-0.7,11.9-2
			c3.7-1.4,7-3.3,9.8-5.9c2.8-2.5,5-5.7,6.6-9.4c1.6-3.7,2.4-7.9,2.4-12.6C141.8,113.3,141.1,109.5,139.6,106.2z"/>
	</g>
</g>
</svg>
