<?xml version="1.0" encoding="utf-8"?>
<!-- Generator: Adobe Illustrator 24.2.3, SVG Export Plug-In . SVG Version: 6.00 Build 0)  -->
<svg version="1.1" id="Layer_1" xmlns="http://www.w3.org/2000/svg" xmlns:xlink="http://www.w3.org/1999/xlink" x="0px" y="0px"
	 viewBox="0 0 480 480" style="enable-background:new 0 0 480 480;" xml:space="preserve">
<style type="text/css">
	.st0{fill:#0F80CC;}
	.st1{fill:url(#SVGID_1_);}
	.st2{fill:#003B57;}
</style>
<path class="st0" d="M359.4,28.77H78.89c-18.82,0-34.1,15.41-34.1,34.1v309.36c0,18.82,15.41,34.1,34.1,34.1h184.82
	c-2.05-91.93,29.33-270.35,95.75-377.83L359.4,28.77z"/>
<linearGradient id="SVGID_1_" gradientUnits="userSpaceOnUse" x1="-72.3196" y1="645.9871" x2="-72.3196" y2="642.9225" gradientTransform="matrix(93.7816 0 0 -93.7816 6984.2124 60626.832)">
	<stop  offset="0" style="stop-color:#97D9F6"/>
	<stop  offset="0.9202" style="stop-color:#0F80CC"/>
	<stop  offset="1" style="stop-color:#0F80CC"/>
</linearGradient>
<path class="st1" d="M349.17,38.79H78.89C65.54,38.83,54.72,49.65,54.68,63v286.78c61.24-23.53,153.11-43.78,216.67-42.83
	c19.6-91.12,45.62-180.73,77.88-268.16H349.17z"/>
<path class="st2" d="M424.87,18.67C405.64,1.62,382.38,8.44,359.4,28.77l-10.23,9.96c-39.28,41.6-75.02,118.8-87.02,177.8
	c4.28,9.34,7.66,19.07,10.09,29.05l1.5,6.82l1.5,6.96c0,0-0.34-1.36-1.77-5.46l-0.95-2.73c-0.19-0.51-0.4-1.01-0.61-1.5
	c-3.91-8.18-8.17-16.19-12.75-24.01c-2.48,7.25-4.82,14.55-7.02,21.89c9,16.5,14.46,44.74,14.46,44.74s-0.48-1.84-2.73-8.18
	c-2.05-5.66-12-23.19-14.32-27.28c-4.09,15-5.66,25.1-4.23,27.55c2.73,4.77,5.46,13.64,7.84,22.1c3.68,15,6.69,30.15,9,45.42
	l0.34,4.23c-0.71,17.05-0.37,34.14,1.02,51.15c1.77,21.35,5.12,39.69,9.34,49.51l2.86-1.57c-6.14-19.37-8.73-44.67-7.64-73.93
	c1.7-44.67,11.94-98.55,30.96-154.68C331.3,141.16,375.77,73.1,416.55,40.63c-37.17,33.55-87.43,142.13-102.44,182.3
	c-16.85,45.01-28.78,87.3-36.01,127.74c12.41-37.92,52.51-54.29,52.51-54.29s19.78-24.28,42.69-58.99l-43.99,11.73l-14.19,6.27
	c0,0,36.15-22.03,67.31-32.05c42.76-67.31,89.34-163,42.42-204.74"/>
</svg>
