<?xml version="1.0" encoding="utf-8"?>
<!-- Generator: Adobe Illustrator 24.2.3, SVG Export Plug-In . SVG Version: 6.00 Build 0)  -->
<svg version="1.1" id="Layer_1" xmlns="http://www.w3.org/2000/svg" xmlns:xlink="http://www.w3.org/1999/xlink" x="0px" y="0px"
	 viewBox="0 0 2500 1499" style="enable-background:new 0 0 2500 1499;" xml:space="preserve">
<style type="text/css">
	.st0{fill:#06B6D4;}
</style>
<path class="st0" d="M1250,177.7c-254.2,0-413.1,127.1-476.6,381.2C868.7,431.8,979.9,384.2,1107,416
	c72.5,18.1,124.3,70.7,181.7,128.9c93.4,94.8,201.6,204.6,437.9,204.6c254.2,0,413.1-127.1,476.6-381.2
	c-95.3,127.1-206.5,174.7-333.6,143c-72.5-18.1-124.3-70.7-181.7-128.9C1594.4,287.5,1486.2,177.7,1250,177.7L1250,177.7z
	 M773.4,749.5c-254.2,0-413.1,127.1-476.6,381.2c95.3-127.1,206.5-174.7,333.6-142.9c72.5,18.1,124.3,70.7,181.7,128.9
	c93.4,94.8,201.6,204.6,437.9,204.6c254.2,0,413.1-127.1,476.6-381.2c-95.3,127.1-206.5,174.7-333.6,142.9
	c-72.5-18.1-124.3-70.7-181.7-128.9C1117.8,859.3,1009.7,749.5,773.4,749.5L773.4,749.5z"/>
</svg>
