<svg xmlns="http://www.w3.org/2000/svg" viewBox="0 0 149.53 149.53"><defs><style>.cls-1{isolation:isolate;}.cls-2{fill:#88b3ff;stroke:#369;stroke-width:8px;}.cls-2,.cls-4,.cls-7{stroke-miterlimit:10;}.cls-3{opacity:0.4;mix-blend-mode:multiply;}.cls-4{stroke:#000;}.cls-5,.cls-9{font-size:33.45px;}.cls-10,.cls-11,.cls-5,.cls-9{font-family:Roboto-Regular, Roboto;}.cls-6,.cls-7{fill:#94ffa6;}.cls-7{stroke:#008a0b;}.cls-8{fill:#008a0b;}.cls-11,.cls-9{fill:#f2f2f2;}.cls-10,.cls-11{font-size:33.45px;}</style></defs><g class="cls-1"><g id="Layer_1" data-name="Layer 1"><path class="cls-2" d="M6.1,76.46a70.77,70.77,0,1,0,141.54,0h0a70.77,70.77,0,1,0-141.53,0" transform="translate(-2.1 -1.69)"/><g class="cls-3"><rect x="29.62" y="72.12" width="103.79" height="44.67" transform="translate(-22.15 20.29) rotate(-13.69)"/><rect class="cls-4" x="34.4" y="76.56" width="94.26" height="35.8" transform="translate(-22.15 20.29) rotate(-13.69)"/><circle cx="79.41" cy="92.77" r="17.74"/><circle cx="46.53" cy="100.78" r="6.9"/><circle cx="110.91" cy="85.09" r="6.9"/><text class="cls-5" transform="translate(73.42 107.13) rotate(-13.69)">$</text></g><rect class="cls-6" x="26.62" y="69.12" width="103.79" height="44.67" transform="translate(-21.52 19.49) rotate(-13.69)"/><rect class="cls-7" x="31.4" y="73.56" width="94.26" height="35.8" transform="translate(-21.53 19.5) rotate(-13.69)"/><circle class="cls-8" cx="76.41" cy="89.77" r="17.74"/><circle class="cls-8" cx="43.53" cy="97.78" r="6.9"/><circle class="cls-8" cx="107.91" cy="82.09" r="6.9"/><text class="cls-9" transform="translate(70.42 104.13) rotate(-13.69)">$</text><g class="cls-3"><rect x="57.51" y="10.57" width="44.67" height="103.79" transform="translate(5.11 131.5) rotate(-82.28)"/><rect class="cls-4" x="61.95" y="15.35" width="35.8" height="94.26" transform="translate(5.1 131.52) rotate(-82.28)"/><circle cx="77.74" cy="60.78" r="17.74"/><circle cx="44.21" cy="56.23" r="6.9"/><circle cx="109.87" cy="65.14" r="6.9"/><text class="cls-10" transform="matrix(0.99, 0.13, -0.13, 0.99, 66.91, 71.96)">$</text></g><rect class="cls-6" x="56.51" y="7.57" width="44.67" height="103.79" transform="translate(7.21 127.91) rotate(-82.28)"/><rect class="cls-7" x="60.95" y="12.35" width="35.8" height="94.26" transform="translate(7.21 127.93) rotate(-82.28)"/><circle class="cls-8" cx="76.74" cy="57.78" r="17.74"/><circle class="cls-8" cx="43.21" cy="53.23" r="6.9"/><circle class="cls-8" cx="108.87" cy="62.14" r="6.9"/><text class="cls-11" transform="matrix(0.99, 0.13, -0.13, 0.99, 65.91, 68.96)">$</text></g></g></svg>