<svg xmlns="http://www.w3.org/2000/svg" viewBox="0 0 145.83 139.03"><defs><style>.cls-1{isolation:isolate;}.cls-2,.cls-5{fill:gray;}.cls-2,.cls-6{stroke:#333;}.cls-10,.cls-13,.cls-15,.cls-16,.cls-17,.cls-2,.cls-4,.cls-6,.cls-7,.cls-8,.cls-9{stroke-miterlimit:10;}.cls-3{opacity:0.5;}.cls-11,.cls-3{mix-blend-mode:multiply;}.cls-13,.cls-4,.cls-6{fill:none;}.cls-15,.cls-4{stroke:#000;}.cls-7{fill:#88b3ff;}.cls-10,.cls-13,.cls-16,.cls-7,.cls-9{stroke:#369;}.cls-8{fill:#ff0;stroke:#ffffbc;}.cls-16,.cls-8{stroke-width:4px;}.cls-12,.cls-16,.cls-17,.cls-9{fill:#369;}.cls-10{fill:#d4faff;}.cls-11{opacity:0.3;}.cls-14{opacity:0.25;}.cls-15{fill:#999;}.cls-17{stroke:#fff;stroke-width:2px;}.cls-18{font-size:23px;fill:#fff;font-family:Roboto-Regular, Roboto;}</style></defs><g class="cls-1"><g id="Layer_1" data-name="Layer 1"><path class="cls-2" d="M101.27,113h16.11a2.41,2.41,0,0,1,2.41,2.41v16.34a2,2,0,0,1-2,2H100.86a2,2,0,0,1-2-2V115.43A2.41,2.41,0,0,1,101.27,113Z"/><path class="cls-2" d="M19,116.08H35.94a2,2,0,0,1,2,2v18.75a0,0,0,0,1,0,0H17a0,0,0,0,1,0,0V118.08a2,2,0,0,1,2-2Z" transform="translate(53.62 249.85) rotate(-180)"/><g class="cls-3"><polygon points="14.74 112.78 14.88 116.59 16.32 119.14 20.81 121.51 114.88 121.51 119.38 119.14 120.82 116.59 120.73 113.16 14.74 112.78"/><polygon class="cls-4" points="14.74 112.78 14.88 116.59 16.32 119.14 20.81 121.51 114.88 121.51 119.38 119.14 120.82 116.59 120.73 113.16 14.74 112.78"/></g><polygon class="cls-5" points="14.74 110.78 14.88 114.59 16.32 117.14 20.81 119.51 114.88 119.51 119.38 117.14 120.82 114.59 120.73 111.16 14.74 110.78"/><polygon class="cls-6" points="14.74 110.78 14.88 114.59 16.32 117.14 20.81 119.51 114.88 119.51 119.38 117.14 120.82 114.59 120.73 111.16 14.74 110.78"/><polyline class="cls-7" points="68 27.55 38.41 27.55 34.8 28.06 29.93 30.27 28.12 32.14 25.96 35.2 21.09 48.46 18.2 57.3 5.75 57.13 2.5 58.66 1.06 62.4 0.52 66.14 1.6 68.52 3.94 69.71 4.67 69.87 14.77 69.86 14.59 114.59 16.03 117.14 18.74 118.84 20.54 119.52 67.82 119.69 67.59 119.69 114.87 119.52 116.67 118.84 119.38 117.14 120.82 114.59 120.64 69.86 130.75 69.87 131.47 69.71 133.81 68.52 134.9 66.14 134.35 62.4 132.91 58.66 129.66 57.13 117.21 57.3 114.33 48.46 109.45 35.2 107.29 32.14 105.49 30.27 100.61 28.06 97 27.55 67.42 27.55"/><circle class="cls-8" cx="104.68" cy="87.84" r="7.4"/><circle class="cls-8" cx="29.79" cy="87.84" r="7.4"/><rect class="cls-9" x="42.17" y="79.58" width="51.72" height="16.36" rx="4.7"/><path class="cls-10" d="M63.15,69l50.21-.16a2.81,2.81,0,0,0,2.56-3.92l-9.71-26.74A5.24,5.24,0,0,0,101.36,35l-26.7.08L36.72,35a5.26,5.26,0,0,0-4.85,3.18L22.16,64.91a2.81,2.81,0,0,0,2.56,3.92Z" transform="translate(-1.34 -3.06)"/><g class="cls-11"><rect x="21.73" y="104.63" width="92.62" height="8.86" rx="3.92"/><rect class="cls-4" x="21.73" y="104.63" width="92.62" height="8.86" rx="3.92"/></g><rect class="cls-12" x="21.73" y="102.63" width="92.62" height="8.86" rx="3.92"/><rect class="cls-13" x="21.73" y="102.63" width="92.62" height="8.86" rx="3.92"/><g class="cls-14"><path d="M3.61,72c3.6,1.4,7.51.67,11.26,1a1.5,1.5,0,1,0,0-3c-3.51-.3-7.14.41-10.46-.88a1.51,1.51,0,0,0-1.85,1.05,1.53,1.53,0,0,0,1,1.84Z" transform="translate(-1.34 -3.06)"/></g><g class="cls-14"><path d="M134.2,69.13c-3.33,1.29-6.95.58-10.47.88a1.5,1.5,0,0,0,0,3c3.75-.32,7.66.41,11.26-1a1.54,1.54,0,0,0,1-1.84,1.5,1.5,0,0,0-1.84-1.05Z" transform="translate(-1.34 -3.06)"/></g><rect class="cls-15" x="129.47" y="31.87" width="2.68" height="106.66"/><rect class="cls-16" x="116.52" y="2" width="27.32" height="31.53" rx="4.98"/><rect class="cls-17" x="117.92" y="3.62" width="24.51" height="28.29" rx="4.98"/><text class="cls-18" transform="translate(123.66 26.02)">P</text></g></g></svg>