<svg xmlns="http://www.w3.org/2000/svg" viewBox="0 0 117.39 121.22"><defs><style>.cls-1{isolation:isolate;}.cls-2,.cls-8{fill:#88b3ff;}.cls-2,.cls-9{stroke:#369;}.cls-10,.cls-2,.cls-4,.cls-5,.cls-7,.cls-9{stroke-miterlimit:10;}.cls-3,.cls-6{opacity:0.4;}.cls-4{fill:#369;}.cls-4,.cls-5,.cls-7{stroke:#000;}.cls-5{fill:#0071bc;}.cls-6{mix-blend-mode:multiply;}.cls-10,.cls-7,.cls-9{fill:none;}.cls-10{stroke:#fff;}</style></defs><g class="cls-1"><g id="Layer_1" data-name="Layer 1"><rect class="cls-2" x="5.02" y="72.97" width="34.72" height="6.64"/><rect class="cls-2" x="5.02" y="85.74" width="34.72" height="6.64"/><rect class="cls-2" x="5.02" y="98.76" width="34.72" height="6.64"/><rect class="cls-2" x="5.02" y="111.27" width="34.72" height="6.64"/><g class="cls-3"><path d="M53.43,103.86h-28a1.13,1.13,0,0,0,0,2.25H53.43a1.13,1.13,0,0,0,0-2.25Z" transform="translate(-16.77 -14.18)"/></g><g class="cls-3"><path d="M53.49,116.91h-28a1.13,1.13,0,0,0,0,2.25H53.49a1.13,1.13,0,0,0,0-2.25Z" transform="translate(-16.77 -14.18)"/></g><g class="cls-3"><path d="M53.4,129.36h-28a1.13,1.13,0,0,0,0,2.25H53.4a1.13,1.13,0,0,0,0-2.25Z" transform="translate(-16.77 -14.18)"/></g><g class="cls-3"><path d="M53.4,91.08h-28a1.13,1.13,0,0,0,0,2.25H53.4a1.13,1.13,0,0,0,0-2.25Z" transform="translate(-16.77 -14.18)"/></g><rect class="cls-4" x="2.7" y="65.82" width="5.87" height="54.89"/><rect class="cls-4" x="36.95" y="65.82" width="5.87" height="54.89"/><polygon class="cls-2" points="116.88 120.57 116.69 112.91 115.73 110.81 113.72 108.6 112.47 108.13 98.3 108.22 58.86 63.32 51.2 47.04 48.52 44.65 45.74 44.26 42.68 44.36 41.81 66.57 49.76 66.48 98.78 120.48 116.88 120.57"/><rect class="cls-5" x="1.19" y="22.42" width="42.38" height="44.17"/><g class="cls-6"><polygon points="23.38 1.72 44.57 23.42 2.19 23.42 23.38 1.72"/><polygon class="cls-7" points="23.38 1.72 44.57 23.42 2.19 23.42 23.38 1.72"/></g><polygon class="cls-8" points="22.38 0.72 43.57 22.42 1.19 22.42 22.38 0.72"/><polygon class="cls-9" points="22.38 0.72 43.57 22.42 1.19 22.42 22.38 0.72"/><g class="cls-6"><circle cx="23.63" cy="45.18" r="13.4"/><circle class="cls-7" cx="23.63" cy="45.18" r="13.4"/></g><circle class="cls-8" cx="22.63" cy="43.18" r="13.4"/><circle class="cls-10" cx="22.63" cy="43.18" r="13.4"/></g></g></svg>