<svg id="Layer_1" data-name="Layer 1" xmlns="http://www.w3.org/2000/svg" viewBox="0 0 143.53 143.53"><defs><style>.cls-1{fill:#6a8fff;}.cls-1,.cls-4{stroke:#369;stroke-miterlimit:10;stroke-width:2px;}.cls-2{fill:#369;}.cls-3{fill:#b4cbff;}.cls-4{fill:#aaefff;}.cls-5{fill:#ffd394;}.cls-6{fill:red;}.cls-7{opacity:0.1;}</style></defs><path class="cls-1" d="M145.87,76.3a70.77,70.77,0,0,1-141.53,0" transform="translate(-3.34 -4.53)"/><path class="cls-2" d="M84.47,105.31H127.2c3.86,0,3.87-6,0-6H84.47c-3.86,0-3.86,6,0,6Z" transform="translate(-3.34 -4.53)"/><path class="cls-3" d="M30.83,105.31h6.53a3.1,3.1,0,0,0,2.13-.88,3,3,0,0,0,.87-2.12,3,3,0,0,0-.87-2.12,3.13,3.13,0,0,0-2.13-.88H30.83a3.1,3.1,0,0,0-2.12.88,3,3,0,0,0-.88,2.12,3,3,0,0,0,.88,2.12,3.08,3.08,0,0,0,2.12.88Z" transform="translate(-3.34 -4.53)"/><path class="cls-3" d="M44.69,105.31h3.77a3.06,3.06,0,0,0,2.12-.88,2.16,2.16,0,0,0,.62-1,2.2,2.2,0,0,0,.26-1.16,3,3,0,0,0-.88-2.12,3.08,3.08,0,0,0-2.12-.88H44.69a3.1,3.1,0,0,0-2.12.88,2.19,2.19,0,0,0-.62,1,2.17,2.17,0,0,0-.26,1.15,3,3,0,0,0,.88,2.12,3.1,3.1,0,0,0,2.12.88Z" transform="translate(-3.34 -4.53)"/><path class="cls-3" d="M57.56,105.31H72.93a3,3,0,0,0,0-6H57.56a3,3,0,0,0,0,6Z" transform="translate(-3.34 -4.53)"/><path class="cls-3" d="M29.11,114.61h6.54a3,3,0,0,0,2.12-5.12,3.12,3.12,0,0,0-2.12-.88H29.11a3,3,0,0,0-3,3,3,3,0,0,0,.88,2.12,3.1,3.1,0,0,0,2.12.88Z" transform="translate(-3.34 -4.53)"/><path class="cls-3" d="M75.21,114.61h6.53a3.1,3.1,0,0,0,2.13-.88,3,3,0,0,0,0-4.24,3.13,3.13,0,0,0-2.13-.88H75.21a3.1,3.1,0,0,0-2.12.88,3,3,0,0,0-.88,2.12,3,3,0,0,0,.88,2.12,3.08,3.08,0,0,0,2.12.88Z" transform="translate(-3.34 -4.53)"/><path class="cls-3" d="M93,114.61h3.26a2.29,2.29,0,0,0,1.16-.25A2.75,2.75,0,0,0,99,112.77a2.29,2.29,0,0,0,.25-1.16l-.1-.79a3,3,0,0,0-2.9-2.21H93a2.3,2.3,0,0,0-1.16.26,2.34,2.34,0,0,0-1,.62,3.3,3.3,0,0,0-.87,2.12l.1.8a2.94,2.94,0,0,0,.77,1.32,3.13,3.13,0,0,0,2.13.88Z" transform="translate(-3.34 -4.53)"/><path class="cls-3" d="M95.46,123.91H106a3,3,0,0,0,0-6H95.46a3,3,0,0,0,0,6Z" transform="translate(-3.34 -4.53)"/><path class="cls-2" d="M64.05,123.91H79.28a3,3,0,0,0,0-6H64.05a3,3,0,1,0,0,6Z" transform="translate(-3.34 -4.53)"/><path class="cls-2" d="M48.82,123.91h5.93a3.09,3.09,0,0,0,2.12-.87,3,3,0,0,0,0-4.25,3.08,3.08,0,0,0-2.12-.88H48.82A3,3,0,0,0,46.7,123a3.16,3.16,0,0,0,2.12.87Z" transform="translate(-3.34 -4.53)"/><path class="cls-2" d="M75.44,133.35H90.67a3,3,0,0,0,0-6H75.44a3,3,0,0,0,0,6Z" transform="translate(-3.34 -4.53)"/><path class="cls-4" d="M145.87,76.3a70.77,70.77,0,1,0-141.53,0" transform="translate(-3.34 -4.53)"/><path class="cls-5" d="M27.66,90.25l2.83-.94,16.18-8.09,14-29.66,1.35-2,2.56-1.48,40.71-4.18,13.88-.4,6.07,3.64,4,5,.14,1.35-2.16,1.75-1.62-.4s-4.85-5.12-5.25-5.12a10.33,10.33,0,0,0-2,.81v2.29l5,3.37-1.62,1.61s-8.62-4.44-8.89-4.85-4.58-3.1-7.28-3.23-28.71,9.84-28.71,9.84L72,65.45,64.46,90.38Z" transform="translate(-3.34 -4.53)"/><path class="cls-5" d="M87.84,90.48s-16.31.12-16.27,0,1.18-6.48,1.21-6.58,1.85-3.27,1.85-3.27l3.21-2.77,4-2.29,5.26-2.73,3.23-1,2.56-.14,2.83.27,3.37,1.11,2.6,1.62L104.34,77l1.4,2.12.91,2.12.55,2.06.19,2.06s0,1.88,0,2-.76,3.08-.76,3.08Z" transform="translate(-3.34 -4.53)"/><polygon class="cls-6" points="83.8 68.26 87.03 67.28 89.59 67.15 92.42 67.42 95.79 68.53 98.39 70.15 101 72.46 102.4 74.58 103.31 76.7 103.86 78.76 104.05 80.81 104.03 82.77 103.27 85.85 90.86 85.94 83.8 68.26"/><ellipse cx="82.01" cy="76.35" rx="2.62" ry="2.74"/><ellipse cx="86.13" cy="85.87" rx="2.62" ry="2.74"/><path class="cls-2" d="M20.92,95.68H63.65c3.86,0,3.87-6,0-6H20.92c-3.86,0-3.87,6,0,6Z" transform="translate(-3.34 -4.53)"/><path class="cls-2" d="M70.66,95.68h38c3.86,0,3.87-6,0-6h-38c-3.86,0-3.87,6,0,6Z" transform="translate(-3.34 -4.53)"/><path class="cls-2" d="M115.41,95.68H120a3.1,3.1,0,0,0,2.12-.88,3,3,0,0,0,0-4.25,3.12,3.12,0,0,0-2.12-.87h-4.58a3,3,0,0,0-3,3,3,3,0,0,0,.88,2.12,3.1,3.1,0,0,0,2.12.88Z" transform="translate(-3.34 -4.53)"/><path class="cls-6" d="M127.49,77.45" transform="translate(-3.34 -4.53)"/><g class="cls-7"><path d="M113.54,51.49a20.08,20.08,0,0,0-6-2.79,9.61,9.61,0,0,0-5.2.42c-4.49,1.4-8.91,3.11-13.35,4.65q-3.51,1.2-7,2.45A44.65,44.65,0,0,0,76.1,58.4c-1.7.91-2.65,2.78-3.88,4.18a9,9,0,0,0-2.55,5.07c-.1,1,1.4.95,1.5,0,.21-2.11,1.74-3.44,3-5a22.31,22.31,0,0,1,1.75-2.23,6.26,6.26,0,0,1,2.51-1.32c4-1.37,7.9-2.82,11.87-4.18s7.87-2.82,11.84-4.14a8.93,8.93,0,0,1,5-.62,18.69,18.69,0,0,1,5.65,2.64c.82.51,1.58-.79.76-1.3Z" transform="translate(-3.34 -4.53)"/></g><g class="cls-7"><path d="M126.41,53.31c-1.18-1.31-2.46-2.52-3.76-3.71a4.12,4.12,0,0,0-2.12-1.4,6.15,6.15,0,0,0-2.43.65.75.75,0,0,0,.4,1.45,9.2,9.2,0,0,0,1-.41,1.59,1.59,0,0,1,.9-.2c.27.07.49.36.69.54s.6.54.89.82c1.16,1.06,2.29,2.15,3.34,3.32.65.72,1.71-.35,1.06-1.06Z" transform="translate(-3.34 -4.53)"/></g></svg>