<svg xmlns="http://www.w3.org/2000/svg" viewBox="0 0 145.51 131.7"><defs><style>.cls-1{isolation:isolate;}.cls-2{fill:gray;stroke:#000;}.cls-2,.cls-6{stroke-miterlimit:10;stroke-width:2px;}.cls-3{fill:#cfab74;}.cls-4{fill:#fddfb1;}.cls-5{opacity:0.2;mix-blend-mode:multiply;}.cls-6{fill:#88b3ff;stroke:#369;}</style></defs><g class="cls-1"><g id="Layer_1" data-name="Layer 1"><rect class="cls-2" x="71.28" y="29.6" width="4.6" height="101.11"/><polygon class="cls-3" points="18.43 131.18 39.06 81.56 44.37 83.77 24.64 131.2 18.43 131.18"/><polygon class="cls-3" points="124.69 131.18 104.06 81.56 98.75 83.77 118.48 131.2 124.69 131.18"/><rect class="cls-4" x="16.85" y="77.43" width="107.52" height="4.4" rx="2.2"/><g class="cls-5"><path d="M116.4,93.36H28.82a2,2,0,0,1-2-2V87.74H118.4v3.62A2,2,0,0,1,116.4,93.36Z" transform="translate(-2 -2.91)"/></g><path class="cls-3" d="M116.4,90.36H28.82a2,2,0,0,1-2-2V84.74H118.4v3.62A2,2,0,0,1,116.4,90.36Z" transform="translate(-2 -2.91)"/><rect class="cls-4" y="99.19" width="145.51" height="4.4" rx="2.2"/><path class="cls-3" d="M10.79,103.6H134.72a0,0,0,0,1,0,0v3.62a2,2,0,0,1-2,2H12.79a2,2,0,0,1-2-2V103.6a0,0,0,0,1,0,0Z"/><path class="cls-6" d="M133,32.83c0-16-25.64-28.92-57.26-28.92C44.42,3.91,19,16.6,18.48,32.35Z" transform="translate(-2 -2.91)"/></g></g></svg>