<svg id="Layer_1" data-name="Layer 1" xmlns="http://www.w3.org/2000/svg" viewBox="0 0 139.04 139.04"><defs><style>.cls-1{fill:#88b3ff;stroke:#369;stroke-miterlimit:10;stroke-width:5px;}.cls-2{fill:#fff;}</style></defs><rect class="cls-1" x="2.5" y="2.5" width="134.04" height="134.04" rx="7.79"/><circle class="cls-2" cx="33.03" cy="24.9" r="12.73"/><polygon class="cls-2" points="33.19 39.22 30.21 39.23 26.64 39.99 23.45 41.14 21.28 42.29 19.49 43.7 18.28 45.23 17.64 46.57 7.23 78.16 7.11 79.69 7.43 81.04 8.32 82.38 9.6 83.27 10.94 83.46 12.53 83.21 13.87 82.12 14.38 81.55 21.66 59.33 21.47 120.48 21.91 121.76 22.55 122.91 23.32 123.67 24.34 124.19 25.68 124.69 27.21 124.69 28.43 124.31 29.7 123.16 30.66 122.02 31.11 120.55 30.91 82.38 31.49 81.16 32.83 80.46 33.28 80.46 33.19 39.22"/><polygon class="cls-2" points="33.13 39.23 36.21 39.23 39.79 39.99 42.98 41.14 45.15 42.29 46.94 43.7 48.15 45.23 48.79 46.57 59.19 78.16 59.32 79.69 59 81.04 58.11 82.38 56.83 83.27 55.49 83.46 53.89 83.21 52.55 82.12 52.04 81.55 44.77 59.33 44.96 120.48 44.51 121.76 43.87 122.91 43.11 123.67 42.09 124.19 40.74 124.69 39.21 124.69 38 124.31 36.72 123.16 35.77 122.02 35.32 120.55 35.51 82.38 34.94 81.16 33.6 80.46 33.15 80.46 33.13 39.23"/><rect class="cls-2" x="66.89" y="8.14" width="7.28" height="120.06" rx="3.64"/><circle class="cls-2" cx="105.22" cy="24.9" r="12.73"/><polygon class="cls-2" points="105.38 39.22 102.4 39.23 98.83 39.99 95.64 41.14 93.47 42.29 91.68 43.7 90.47 45.23 89.83 46.57 79.43 78.16 79.3 79.69 79.62 81.04 80.51 82.38 81.79 83.27 83.13 83.46 84.72 83.21 86.06 82.12 86.57 81.55 93.85 59.33 93.66 120.48 94.11 121.76 94.75 122.91 95.51 123.67 96.53 124.19 97.87 124.69 99.4 124.69 100.62 124.31 101.89 123.16 102.85 122.02 103.3 120.55 103.11 82.38 103.68 81.16 105.02 80.46 105.47 80.46 105.38 39.22"/><polygon class="cls-2" points="105.3 39.22 108.4 39.23 111.98 39.99 115.17 41.14 117.34 42.29 119.13 43.7 120.34 45.23 120.98 46.57 131.38 78.16 131.51 79.69 131.19 81.04 130.3 82.38 129.02 83.27 127.68 83.46 126.08 83.21 124.75 82.12 124.23 81.55 116.96 59.33 117.15 120.48 116.7 121.76 116.06 122.91 115.3 123.67 114.28 124.19 112.94 124.69 111.4 124.69 110.19 124.31 108.92 123.16 107.96 122.02 107.51 120.55 107.7 82.38 107.13 81.16 105.79 80.46 105.34 80.46 105.3 39.22"/><polygon class="cls-2" points="94.08 63.16 89.68 87.16 105.64 87.1 105.42 61.92 94.08 63.16"/><polygon class="cls-2" points="116.96 63.16 121.36 87.16 105.4 87.1 105.42 61.92 116.96 63.16"/></svg>